Coordinates
version=1
nRows=8
nColumns=36
inDegrees=yes

Units are S.I. units (second, meters, Newtons, ...)
If the header above contains a line with 'inDegrees', this indicates whether rotational values are in degrees (yes) or radians (no).

endheader
time	pelvis_tilt	pelvis_list	pelvis_rotation	pelvis_tx	pelvis_ty	pelvis_tz	hip_flexion_r	hip_adduction_r	hip_rotation_r	knee_angle_r	knee_angle_r_beta	ankle_angle_r	subtalar_angle_r	mtp_angle_r	hip_flexion_l	hip_adduction_l	hip_rotation_l	knee_angle_l	knee_angle_l_beta	ankle_angle_l	subtalar_angle_l	mtp_angle_l	lumbar_extension	lumbar_bending	lumbar_rotation	arm_flex_r	arm_add_r	arm_rot_r	elbow_flex_r	pro_sup_r	arm_flex_l	arm_add_l	arm_rot_l	elbow_flex_l	pro_sup_l
      0.00000000	     -7.99178886	      0.32354660	     -0.74667598	      0.38041438	      0.97655288	     -0.10093511	      0.01712194	     -1.70501850	     -7.04003155	      0.08688490	      0.00151643	      9.61154583	      2.62859299	     -4.67563002	      2.19280512	     -2.37117553	      1.67090007	      3.07751226	      0.05371272	      0.28651569	     -9.52685087	     -4.67563002	      5.98638542	     -1.09885269	      1.70870895	     -7.45814788	    -10.38570365	      4.65146749	     26.11152248	     86.11565598	     -0.75163754	    -11.41499997	     14.41730143	     23.02862753	     82.85616689
      0.01666670	    -10.37049928	      0.14193019	     -0.66651979	      0.37949337	      0.97216980	     -0.10207271	      1.98750154	     -1.57275555	     -6.71338877	      0.07904522	      0.00137960	     11.13656151	      4.63682621	     -5.24389677	      3.87283273	     -2.75259130	      2.79773755	      2.25577576	      0.03937071	      0.76031822	     -8.03053522	     -5.24389677	      8.70240617	     -1.29309009	      0.80680599	    -11.13572819	    -10.35870579	      7.48579794	     32.29966318	     83.80324719	     -2.84411386	    -11.32390466	     17.23699448	     24.08665860	     81.17727972
      0.03333330	    -11.48166204	      0.44136210	     -0.60370517	      0.37937339	      0.97187709	     -0.10214745	      2.95474961	     -1.88518428	     -5.82458694	      0.07867216	      0.00137309	     11.84592131	      3.81782889	     -5.49815351	      4.96657001	     -2.45908400	      3.55384217	      2.27259120	      0.03966420	      1.79229279	     -8.83304959	     -5.49815351	      9.88781809	     -1.92298860	     -0.14010206	    -11.33774272	     -9.49033185	      6.84483639	     32.97419110	     82.22653911	     -2.73049711	    -11.16891587	     18.26346961	     22.17800660	     80.28771437
      0.05000000	    -12.33811464	      0.59439098	     -0.70689278	      0.37987436	      0.96945514	     -0.10221770	      3.73941118	     -2.15331943	     -5.12155788	      0.08033567	      0.00140212	     12.05434877	      3.77767807	     -6.00700545	      5.59925186	     -2.39225456	      4.12685185	      1.98373276	      0.03462267	      2.72768942	     -8.88650832	     -6.00700545	     10.92850498	     -2.19590622	      0.08157681	    -11.96690793	     -8.99481047	      4.89320628	     33.79855157	     78.16292051	     -1.93687052	    -11.09368681	     20.30244639	     20.44046322	     77.78663996
      0.06666670	    -12.76592118	      0.65592913	     -0.86958107	      0.38031911	      0.96889906	     -0.10221922	      4.10820036	     -2.28174659	     -4.59149896	      0.08090588	      0.00141207	     12.33432217	      3.45026392	     -6.14141619	      5.84679609	     -2.42110448	      4.18602095	      1.73390470	      0.03026235	      3.69444742	     -8.84358263	     -6.14141619	     11.54747476	     -2.27108496	     -0.45549535	    -11.67705520	     -8.84756603	      4.39605220	     33.47483076	     77.07211010	     -2.36448664	    -11.07770157	     20.14548121	     19.98953194	     76.83424274
      0.08333330	    -13.27997883	      0.68115464	     -1.06586947	      0.38103116	      0.96779754	     -0.10220789	      4.59503001	     -2.35970209	     -4.15769759	      0.08116293	      0.00141656	     12.30631548	      3.06900797	     -6.33379247	      6.19595342	     -2.49896672	      3.86715755	      1.51663256	      0.02647023	      4.35141574	     -8.42032040	     -6.33379247	     12.29260880	     -2.26048613	     -0.67524368	    -11.73541858	     -8.80517020	      4.02969465	     33.49200266	     75.52311087	     -2.80648129	    -11.22095246	     19.94917784	     20.33652903	     75.50536944
      0.10000000	    -14.05088589	      0.65918622	     -1.12746782	      0.38141959	      0.96669030	     -0.10240634	      5.34806454	     -2.38077223	     -3.75110702	      0.08093497	      0.00141258	     12.16024584	      2.56838149	     -6.47775690	      6.92048570	     -2.59943881	      3.63903747	      1.48495816	      0.02591741	      5.33371494	     -7.73975507	     -6.47775690	     13.32736971	     -2.13357070	     -0.89496184	    -12.30637540	     -8.91278605	      3.81562334	     34.35085538	     74.42570368	     -3.69818368	    -11.60122949	     19.83097237	     21.90366708	     74.54034156
      0.11666670	    -13.98919208	      0.59427352	     -1.25962574	      0.38164096	      0.96259587	     -0.10354634	      5.24412887	     -2.36741867	     -3.60520008	      0.08184222	      0.00142842	     12.19074104	      2.39601025	     -6.57788527	      6.74236651	     -2.69640749	      3.21175112	      1.44887744	      0.02528768	      5.42097121	     -7.87802780	     -6.57788527	     13.35308147	     -2.06714394	     -0.92477672	    -11.95934915	     -8.74258914	      3.65983436	     33.51520545	     72.93251017	     -3.47790577	    -11.51131956	     20.06888658	     21.19612282	     73.63112433
